<?xml version="1.0" encoding="UTF-8" standalone="no"?>
<svg
   xmlns:dc="http://purl.org/dc/elements/1.1/"
   xmlns:cc="http://creativecommons.org/ns#"
   xmlns:rdf="http://www.w3.org/1999/02/22-rdf-syntax-ns#"
   xmlns:svg="http://www.w3.org/2000/svg"
   xmlns="http://www.w3.org/2000/svg"
   xmlns:sodipodi="http://sodipodi.sourceforge.net/DTD/sodipodi-0.dtd"
   xmlns:inkscape="http://www.inkscape.org/namespaces/inkscape"
   id="Layer_1"
   data-name="Layer 1"
   viewBox="0 0 735 852"
   version="1.1"
   sodipodi:docname="piggyback.svg"
   inkscape:version="0.92.2 5c3e80d, 2017-08-06">
  <metadata
     id="metadata4788">
    <rdf:RDF>
      <cc:Work
         rdf:about="">
        <dc:format>image/svg+xml</dc:format>
        <dc:type
           rdf:resource="http://purl.org/dc/dcmitype/StillImage" />
        <dc:title>RStudio_Hex 2016 v7 outlines</dc:title>
      </cc:Work>
    </rdf:RDF>
  </metadata>
  <sodipodi:namedview
     pagecolor="#ffffff"
     bordercolor="#666666"
     borderopacity="1"
     objecttolerance="10"
     gridtolerance="10"
     guidetolerance="10"
     inkscape:pageopacity="0"
     inkscape:pageshadow="2"
     inkscape:window-width="1288"
     inkscape:window-height="760"
     id="namedview4786"
     showgrid="false"
     inkscape:zoom="0.30340376"
     inkscape:cx="-59.307686"
     inkscape:cy="570.55113"
     inkscape:window-x="0"
     inkscape:window-y="0"
     inkscape:window-maximized="0"
     inkscape:current-layer="Layer_1" />
  <defs
     id="defs4671">
    <style
       id="style4666">.cls-1{fill:#ba6f38;}.cls-2{clip-path:url(#clip-path);}.cls-3{fill:#164f86;}.cls-4{fill:#14275b;}.cls-5{fill:#e6b35a;}.cls-6{fill:#fff;}.cls-7{fill:#ba3224;}.cls-8{fill:#b13728;}.cls-9{fill:#aa3729;}.cls-10{fill:#221819;}.cls-11{fill:#1a171b;opacity:0.1;}.cls-12{opacity:0.94;}</style>
    <clipPath
       id="clip-path">
      <polygon
         class="cls-1"
         points="369.5 8 728.2 215.1 728.2 637.2 369.5 845.6 2.8 637.2 2.8 215.1 369.5 8"
         id="polygon4668" />
    </clipPath>
  </defs>
  <title
     id="title4673">RStudio_Hex 2016 v7 outlines</title>
  <g
     class="cls-2"
     clip-path="url(#clip-path)"
     id="g4679"
     transform="translate(-0.7,5)">
    <circle
       class="cls-3"
       cx="365.5"
       cy="438"
       r="442.10001"
       id="circle4677"
       style="fill:#164f86" />
  </g>
  <path
     class="cls-4"
     d="M 707.6,203.2 429.8,42.8 369.5,8 309.2,42.8 31.3,203.2 2.1,220.1 v 424.3 l 29.3,16.9 281.2,162.4 56.9,32.8 56.9,-32.8 281.2,-162.4 29.3,-16.9 V 220.1 Z m 0,425.3 L 369.5,823.7 31.3,628.5 V 238 L 369.5,42.8 v 0 L 707.6,238 Z"
     id="path4681"
     inkscape:connector-curvature="0"
     style="fill:#14275b" />
  <path
     class="cls-5"
     d="m 386.07876,231.96659 0.0584,-1.60198 -0.27252,0.21873 z"
     id="path4683"
     inkscape:connector-curvature="0"
     style="fill:#e6b35a;stroke-width:1.25282407" />
  <path
     class="cls-6"
     d="m 285.53377,290.55029 42.05833,-33.75724 c 0.98624,-0.44602 1.48583,0.36251 2.07625,1.09812 6.9164,8.61717 13.91713,17.33942 20.83352,25.95659 a 2.2907561,1.9801547 51.248455 0 1 -0.12984,3.55995 l -38.78815,31.13249 c -2.63432,2.11439 -2.98469,2.05003 -5.34638,-0.89241 q -9.61547,-11.97997 -19.1466,-23.85485 c -0.75263,-1.12379 -1.8686,-1.95593 -1.55713,-3.24265 z"
     id="path4705"
     inkscape:connector-curvature="0"
     style="fill:#ffffff;stroke-width:1.25282407" />
  <path
     class="cls-6"
     d="m 448.80752,262.48259 -20.34788,16.3318 a 1.2127532,1.0483172 51.248455 0 1 -1.92704,-0.35395 c -0.0843,-0.10509 -0.16869,-0.21017 -0.33738,-0.42035 Q 415.73629,265.00925 405.193,251.87332 c -1.18084,-1.47122 -1.08999,-1.54414 0.007,-2.59705 l 39.51485,-31.71577 c 1.81678,-1.4582 1.81678,-1.4582 3.5037,0.64354 q 10.12155,12.6105 20.24309,25.22099 c 1.51824,1.89158 1.51824,1.89158 -0.11686,3.20396 l -19.62116,15.74852 z"
     id="path4707"
     inkscape:connector-curvature="0"
     style="fill:#ffffff;stroke-width:1.25282407" />
  <path
     class="cls-6"
     d="M 421.80373,229.21061 401.5467,245.4695 a 1.0780029,0.93183757 51.248455 0 1 -1.66101,-0.39469 c -0.25304,-0.31527 -0.50608,-0.63053 -0.75911,-0.94579 q -10.03721,-12.50541 -20.07441,-25.01081 c -0.16869,-0.21017 -0.42174,-0.52544 -0.59043,-0.73562 a 1.3475036,1.1647969 51.248455 0 1 -0.006,-2.24104 l 40.60492,-32.59069 a 1.2127532,1.0483172 51.248455 0 1 1.66101,0.39469 c 0.25304,0.31525 0.50607,0.63051 0.75912,0.94578 q 9.95285,12.40032 19.90571,24.80063 c 1.60258,1.99667 2.30981,1.94738 -0.052,3.84303 z"
     id="path4709"
     inkscape:connector-curvature="0"
     style="fill:#ffffff;stroke-width:1.25282407" />
  <path
     class="cls-6"
     d="m 258.98417,256.91376 41.5133,-33.31979 a 1.7517547,1.5142359 51.248455 0 1 2.35527,0.7014 q 10.54328,13.13593 21.17091,26.37694 a 2.0212554,1.7471954 51.248455 0 1 -0.0195,2.95304 l -40.51407,32.51778 a 2.0212554,1.7471954 51.248455 0 1 -2.80295,-0.51484 q -0.42174,-0.52544 -0.92781,-1.15596 c -6.49466,-8.09173 -12.98932,-16.18346 -19.48399,-24.2752 -0.84995,-0.87287 -1.95944,-1.88302 -1.29111,-3.28337 z"
     id="path4711"
     inkscape:connector-curvature="0"
     style="fill:#ffffff;stroke-width:1.25282407" />
  <path
     class="cls-6"
     d="m 351.45801,182.69156 41.14995,-33.02815 a 1.7517547,1.5142359 51.248455 0 1 2.35526,0.70139 q 10.54328,13.13594 21.17091,26.37695 c 1.0965,1.36614 0.54498,1.9816 -0.36341,2.7107 l -39.96905,32.08032 c -1.36258,1.09365 -2.23851,0.93275 -3.41936,-0.53847 -6.65685,-8.47991 -13.4954,-16.81399 -20.2431,-25.22098 -0.84346,-1.05088 -1.6934,-1.92376 -0.6812,-3.08176 z"
     id="path4713"
     inkscape:connector-curvature="0"
     style="fill:#ffffff;stroke-width:1.25282407" />
  <path
     class="cls-6"
     d="m 471.77786,196.01137 20.25704,-16.2589 a 1.0780029,0.93183757 51.248455 0 1 1.40148,0.25743 c 0.16869,0.21017 0.42173,0.52543 0.59042,0.73561 6.7477,8.40699 13.4954,16.81399 20.2431,25.22099 1.85562,2.31192 1.76479,2.38483 -0.23367,3.98885 l -38.60646,30.98667 c -1.81678,1.4582 -1.81678,1.4582 -3.5037,-0.64356 q -10.03721,-12.5054 -20.07441,-25.01081 c -0.33739,-0.42035 -0.59043,-0.73562 -0.92781,-1.15596 a 1.0780029,0.93183757 51.248455 0 1 0.0584,-1.60197 l 20.62039,-16.55053 z"
     id="path4715"
     inkscape:connector-curvature="0"
     style="fill:#ffffff;stroke-width:1.25282407" />
  <path
     class="cls-6"
     d="m 424.24452,179.21699 41.78582,-33.53852 c 0.71372,-0.22728 1.05111,0.19307 1.47284,0.71852 6.81906,8.86807 13.91063,17.51741 20.91137,26.23967 1.68693,2.10175 1.67394,2.45775 -0.0585,4.02103 l -38.42479,30.84085 c -2.45264,1.96857 -2.62783,1.93639 -4.98952,-1.00606 q -9.78417,-12.19014 -19.65268,-24.48537 c -0.67477,-0.8407 -1.88159,-1.59993 -1.04456,-2.79012 z"
     id="path4717"
     inkscape:connector-curvature="0"
     style="fill:#ffffff;stroke-width:1.25282407" />
  <path
     class="cls-6"
     d="m 397.69493,145.58045 41.14995,-33.02815 c 0.8954,-0.37309 1.48582,0.36252 2.07624,1.09813 7.00074,8.72226 14.00148,17.44451 21.00222,26.16678 a 2.0212554,1.7471954 51.248455 0 1 -0.026,3.13103 l -39.96904,32.08032 a 2.0212554,1.7471954 51.248455 0 1 -2.97814,-0.54701 Q 408.40688,161.34562 397.77925,148.1046 a 1.7517547,1.5142359 51.248455 0 1 -0.0843,-2.52415 z"
     id="path4719"
     inkscape:connector-curvature="0"
     style="fill:#ffffff;stroke-width:1.25282407" />
  <path
     class="cls-6"
     d="m 305.22109,219.80266 41.14995,-33.02815 c 1.3496,-0.73765 2.19307,0.31322 3.03653,1.36409 3.12081,3.88824 6.15727,7.67139 9.27809,11.55963 3.12081,3.88823 7.08508,8.82733 10.62762,13.24101 1.68693,2.10175 1.68043,2.27976 -0.13634,3.73795 l -39.42401,31.64286 c -1.27175,1.02074 -2.06333,0.96493 -3.24418,-0.5063 -6.83204,-8.51207 -13.66409,-17.02415 -20.49614,-25.53624 -0.59042,-0.73561 -1.35602,-1.50339 -0.79152,-2.47485 z"
     id="path4721"
     inkscape:connector-curvature="0"
     style="fill:#ffffff;stroke-width:1.25282407" />
  <path
     class="cls-4"
     d="m 231.79872,223.78759 39.15149,-31.42413 c 3.36103,-2.69766 3.36103,-2.69766 6.39749,1.08548 q 9.36244,11.66471 18.72487,23.32942 c 1.85562,2.31192 1.85562,2.31192 -0.052,3.84302 l -38.51563,30.91377 a 5.1205137,4.4262282 51.248455 0 0 -1.55724,1.59546 l -0.27251,0.21873 c -0.88891,0.19511 -1.3885,-0.61341 -1.89458,-1.24394 q -10.54327,-13.13593 -21.08655,-26.27186 c -0.59692,-0.55762 -1.27818,-1.22032 -0.89534,-2.04595 z"
     id="path4723"
     inkscape:connector-curvature="0"
     style="fill:#14275b;stroke-width:1.25282407" />
  <path
     class="cls-4"
     d="m 368.25036,162.30208 -20.34788,16.3318 a 1.0780029,0.93183757 51.248455 0 1 -1.75185,-0.32177 c -0.33739,-0.42035 -0.59042,-0.73561 -0.92781,-1.15596 q -9.86851,-12.29523 -19.82137,-24.69555 c -0.33739,-0.42036 -0.59042,-0.73562 -0.92781,-1.15597 a 1.0780029,0.93183757 51.248455 0 1 0.0584,-1.60197 l 39.78737,-31.93451 c 1.99845,-1.60401 1.99845,-1.60401 3.76972,0.60283 q 9.78417,12.19014 19.65268,24.48537 c 0.33738,0.42035 0.67476,0.8407 1.0965,1.36614 a 0.9432525,0.81535783 51.248455 0 1 -0.0519,1.42397 l -20.6204,16.55054 z"
     id="path4725"
     inkscape:connector-curvature="0"
     style="fill:#14275b;stroke-width:1.25282407" />
  <path
     class="cls-4"
     d="m 298.90906,170.44123 20.34788,-16.3318 a 1.2127532,1.0483172 51.248455 0 1 1.92704,0.35395 c 0.25303,0.31526 0.50608,0.63052 0.75912,0.94579 q 9.86851,12.29523 19.82136,24.69554 c 0.33739,0.42036 0.59042,0.73561 0.92781,1.15597 a 1.0780029,0.93183757 51.248455 0 1 -0.0649,1.77997 l -40.24155,32.29905 c -1.26526,0.84274 -1.26526,0.84274 -2.36825,-0.3454 -1.103,-1.18814 -2.53039,-3.15262 -3.79558,-4.72893 q -8.18159,-10.19349 -16.27883,-20.28188 c -0.42173,-0.52543 -0.84346,-1.05088 -1.18084,-1.47122 a 1.0780029,0.93183757 51.248455 0 1 0.0584,-1.60198 l 20.1662,-16.18598 z"
     id="path4727"
     inkscape:connector-curvature="0"
     style="fill:#14275b;stroke-width:1.25282407" />
  <path
     class="cls-4"
     d="m 412.80136,79.546313 a 15.496292,13.395165 51.248455 0 0 2.5174,3.50861 c 6.58551,8.01882 12.89849,16.25637 19.57483,24.202287 a 0.9432525,0.81535783 51.248455 0 1 0.0389,1.35106 l -39.78737,31.93451 c -2.08929,1.67692 -1.9141,1.7091 -3.76972,-0.60283 q -9.78417,-12.19014 -19.65268,-24.48537 c -0.33739,-0.42035 -0.67477,-0.8407 -1.0965,-1.36614 a 0.9432525,0.81535783 51.248455 0 1 0.0519,-1.42397 l 40.33241,-32.371957 a 3.6382597,3.1449516 51.248455 0 1 1.7908,-0.7462 z"
     id="path4729"
     inkscape:connector-curvature="0"
     style="fill:#14275b;stroke-width:1.25282407" />
  <path
     class="cls-6"
     d="m 402.66144,299.52078 -19.89368,15.96725 c -1.18091,0.94783 -1.18091,0.94783 -2.27741,-0.41831 -2.61473,-3.25771 -5.31382,-6.62051 -7.92855,-9.87822 q -6.57901,-8.19682 -13.07366,-16.28855 c -1.2652,-1.57631 -1.2652,-1.57631 0.0974,-2.66996 l 39.51485,-31.71577 c 1.54426,-1.23947 1.54426,-1.23947 2.97815,0.54702 q 10.29024,12.82066 20.58049,25.64133 c 1.43388,1.78648 1.43388,1.78648 -0.11038,3.02595 l -19.80284,15.89434 z"
     id="path4731"
     inkscape:connector-curvature="0"
     style="fill:#ffffff;stroke-width:1.25282407" />
  <path
     class="cls-6"
     d="m 375.93017,266.03006 -20.25703,16.25889 a 1.0780029,0.93183757 51.248455 0 1 -1.66751,-0.21668 c -0.25304,-0.31526 -0.50608,-0.63053 -0.75912,-0.94579 Q 343.12496,268.51599 333.00342,255.9055 c -0.25305,-0.31527 -0.50609,-0.63053 -0.75912,-0.94579 a 1.2127532,1.0483172 51.248455 0 1 -0.0259,-1.70707 l 40.15072,-32.22614 c 1.36258,-1.09365 1.53777,-1.06147 2.71861,0.40975 q 10.45894,13.03085 20.83352,25.9566 c 1.2652,1.57631 1.2652,1.57631 -0.27906,2.81579 z"
     id="path4733"
     inkscape:connector-curvature="0"
     style="fill:#ffffff;stroke-width:1.25282407" />
  <path
     class="cls-6"
     d="m 311.81085,324.40556 40.33239,-32.37195 c 2.54349,-2.04149 2.18013,-1.74984 4.20444,0.77225 q 9.69982,12.08507 19.48398,24.27521 c 0.33738,0.42034 0.67477,0.84069 1.0965,1.36613 a 1.0780029,0.93183757 51.248455 0 1 -0.0649,1.77997 l -40.15073,32.22614 c -1.54425,1.23947 -1.54425,1.23947 -2.97813,-0.54702 -1.43389,-1.78649 -4.38602,-5.46455 -6.57901,-8.19682 q -6.9164,-8.61717 -13.83279,-17.23434 c -0.59043,-0.73562 -1.00566,-1.43904 -1.59608,-2.17465 v 0 z"
     id="path4735"
     inkscape:connector-curvature="0"
     style="fill:#ffffff;stroke-width:1.25282407" />
  <g
     id="g5127"
     transform="matrix(1.2259962,0,0,0.82977715,176.35746,331.0981)"
     style="fill:#ffffff">
    <g
       id="g5069"
       style="fill:#ffffff">
      <path
         id="path5063"
         d="m 179.345,65.68 c -18.036,-6.272 -37.15,-6.458 -55.242,-0.544 -4.724,1.545 -7.302,6.627 -5.758,11.351 1.545,4.724 6.625,7.299 11.351,5.758 14.365,-4.697 29.405,-4.548 43.737,0.436 0.979,0.34 1.976,0.502 2.957,0.502 3.724,0 7.208,-2.33 8.5,-6.046 1.633,-4.695 -0.85,-9.825 -5.545,-11.457 z"
         inkscape:connector-curvature="0"
         style="fill:#ffffff" />
      <path
         id="path5065"
         d="m 311.851,114.861 c -15.258,0 -29.66,-7.412 -38.553,-19.833 -2.182,-3.292 -4.546,-6.524 -7.054,-9.641 V 23.668 c 0,-3.719 -2.287,-7.054 -5.755,-8.395 -3.47,-1.34 -7.405,-0.41 -9.905,2.342 L 221.802,49.288 C 200.282,38.096 175.94,32.191 150.921,32.191 99.274,32.191 53.947,57.219 28.894,94.611 L 14.92,82.411 c -3.745,-3.27 -9.43,-2.884 -12.699,0.86 -3.27,3.744 -2.884,9.43 0.86,12.699 l 16.732,14.61 c -7.456,15.689 -11.596,32.969 -11.596,51.111 0,9.92 1.242,19.809 3.691,29.393 0.002,0.007 0.004,0.013 0.006,0.02 l 26.824,108.244 c 0.995,4.015 4.599,6.835 8.736,6.835 h 35.791 c 0.008,0 0.017,0.001 0.024,0.001 0.288,0 0.574,-0.017 0.858,-0.045 0.074,-0.007 0.146,-0.019 0.22,-0.028 0.2,-0.024 0.398,-0.054 0.595,-0.091 0.105,-0.02 0.21,-0.044 0.313,-0.067 0.159,-0.036 0.316,-0.077 0.472,-0.122 0.118,-0.033 0.235,-0.067 0.35,-0.105 0.14,-0.046 0.277,-0.099 0.414,-0.151 0.118,-0.045 0.237,-0.088 0.353,-0.138 0.158,-0.069 0.312,-0.146 0.465,-0.224 0.162,-0.082 0.32,-0.168 0.476,-0.259 0.146,-0.085 0.293,-0.171 0.435,-0.265 0.092,-0.061 0.179,-0.126 0.269,-0.19 0.134,-0.096 0.267,-0.193 0.395,-0.296 0.081,-0.064 0.159,-0.132 0.238,-0.199 0.133,-0.114 0.263,-0.232 0.39,-0.354 0.066,-0.064 0.132,-0.128 0.196,-0.194 0.135,-0.139 0.265,-0.283 0.391,-0.43 0.05,-0.058 0.101,-0.115 0.149,-0.174 0.143,-0.176 0.278,-0.358 0.408,-0.545 0.026,-0.038 0.055,-0.074 0.08,-0.112 0.154,-0.23 0.3,-0.467 0.433,-0.713 0.021,-0.037 0.037,-0.077 0.056,-0.114 0.104,-0.199 0.204,-0.401 0.294,-0.609 0.049,-0.114 0.091,-0.233 0.136,-0.35 0.052,-0.136 0.104,-0.271 0.15,-0.411 0.044,-0.135 0.082,-0.272 0.12,-0.409 0.022,-0.081 0.05,-0.159 0.071,-0.241 l 7.658,-30.897 c 16.717,5.986 33.908,9.026 51.244,9.026 17.119,0 33.736,-2.69 49.54,-8.009 l 7.404,29.879 0.004,-10e-4 c 0.898,3.605 4.036,6.836 9.133,6.836 l 35.407,10e-4 c 4.428,0 8.198,-3.221 8.89,-7.595 l 12.164,-76.942 c 14.074,-5.407 23.899,-13.19 30.478,-20.21 12.754,-13.61 16.47,-27.495 16.621,-28.08 0.192,-0.739 0.29,-1.5 0.29,-2.264 v -47.23 c 0.002,-4.971 -4.028,-9.001 -8.998,-9.001 z m -9,54.897 c -2.146,6.456 -16.044,40.712 -69.097,40.712 -4.971,0 -9,4.029 -9,9 0,4.971 4.029,9 9,9 7.516,0 14.384,-0.613 20.671,-1.679 l -9.706,61.391 c -6.254,0 -15.007,0 -21.077,0 l -8.141,-32.853 c -0.631,-2.545 -2.34,-4.689 -4.682,-5.871 -2.341,-1.181 -5.081,-1.283 -7.503,-0.278 -16.467,6.831 -34.095,10.295 -52.396,10.295 -17.85,0 -35.569,-3.673 -52.688,-10.9 -0.791,-0.498 -1.669,-0.884 -2.625,-1.121 -4.826,-1.194 -9.705,1.746 -10.901,6.571 l -8.465,34.157 H 54.516 L 29.365,186.689 c -0.004,-0.016 -0.01,-0.031 -0.014,-0.047 -0.002,-0.005 -0.002,-0.011 -0.003,-0.016 -2.077,-8.128 -3.13,-16.518 -3.13,-24.936 0,-61.481 55.941,-111.499 124.703,-111.499 20.48,0 40.414,4.458 58.302,12.939 l -4.604,5.066 c -3.343,3.679 -3.071,9.371 0.608,12.713 3.677,3.342 9.37,3.07 12.713,-0.608 l 12.419,-13.666 c 0.015,-0.017 0.031,-0.034 0.046,-0.051 l 17.84,-19.632 v 41.672 c 0,2.224 0.822,4.335 2.255,5.958 2.836,3.357 5.482,6.891 7.871,10.505 0.057,0.086 0.115,0.171 0.175,0.255 10.498,14.758 26.623,24.422 44.305,26.892 z"
         inkscape:connector-curvature="0"
         style="fill:#ffffff" />
      <circle
         id="circle5067"
         r="20.761999"
         cy="146.442"
         cx="231.722"
         style="fill:#ffffff" />
    </g>
    <g
       id="g5071"
       style="fill:#ffffff" />
    <g
       id="g5073"
       style="fill:#ffffff" />
    <g
       id="g5075"
       style="fill:#ffffff" />
    <g
       id="g5077"
       style="fill:#ffffff" />
    <g
       id="g5079"
       style="fill:#ffffff" />
    <g
       id="g5081"
       style="fill:#ffffff" />
    <g
       id="g5083"
       style="fill:#ffffff" />
    <g
       id="g5085"
       style="fill:#ffffff" />
    <g
       id="g5087"
       style="fill:#ffffff" />
    <g
       id="g5089"
       style="fill:#ffffff" />
    <g
       id="g5091"
       style="fill:#ffffff" />
    <g
       id="g5093"
       style="fill:#ffffff" />
    <g
       id="g5095"
       style="fill:#ffffff" />
    <g
       id="g5097"
       style="fill:#ffffff" />
    <g
       id="g5099"
       style="fill:#ffffff" />
  </g>
  <g
     aria-label="piggyback"
     transform="matrix(1.0783086,0,0,1.2808496,-103.99439,-227.66151)"
     style="font-style:normal;font-weight:normal;font-size:40px;line-height:125%;font-family:sans-serif;letter-spacing:0px;word-spacing:0px;fill:#ffffff;fill-opacity:1;stroke:none;stroke-width:1px;stroke-linecap:butt;stroke-linejoin:miter;stroke-opacity:1"
     id="flowRoot5129">
    <path
       d="m 246.74284,699.32552 v 21.4375 h -13.05209 v -56.36458 h 13.05209 v 5.97916 q 2.69791,-3.57291 5.97916,-5.25 3.28125,-1.71354 7.54688,-1.71354 7.54687,0 12.39583,6.01563 4.84896,5.97916 4.84896,15.42187 0,9.44271 -4.84896,15.45833 -4.84896,5.97917 -12.39583,5.97917 -4.26563,0 -7.54688,-1.67708 -3.28125,-1.71354 -5.97916,-5.28646 z m 8.67708,-26.43229 q -4.19271,0 -6.45312,3.09896 -2.22396,3.0625 -2.22396,8.85937 0,5.79688 2.22396,8.89584 2.26041,3.06249 6.45312,3.06249 4.19271,0 6.38021,-3.06249 2.22396,-3.0625 2.22396,-8.89584 0,-5.83333 -2.22396,-8.89583 -2.1875,-3.0625 -6.38021,-3.0625 z"
       style="font-style:normal;font-variant:normal;font-weight:bold;font-stretch:normal;font-size:74.66666412px;font-family:sans-serif;-inkscape-font-specification:'sans-serif Bold'"
       id="path4753" />
    <path
       d="m 287.21159,664.39844 h 13.05208 v 40.83333 h -13.05208 z m 0,-15.89584 h 13.05208 v 10.64584 h -13.05208 z"
       style="font-style:normal;font-variant:normal;font-weight:bold;font-stretch:normal;font-size:74.66666412px;font-family:sans-serif;-inkscape-font-specification:'sans-serif Bold'"
       id="path4755" />
    <path
       d="m 340.6595,698.30469 q -2.69791,3.57291 -5.9427,5.25 -3.2448,1.67708 -7.51042,1.67708 -7.47396,0 -12.35938,-5.86979 -4.88541,-5.90625 -4.88541,-15.02083 0,-9.15105 4.88541,-14.98438 4.88542,-5.86979 12.35938,-5.86979 4.26562,0 7.51042,1.67708 3.24479,1.67709 5.9427,5.28646 v -6.05208 h 13.125 v 36.71354 q 0,9.84375 -6.23437,15.02083 -6.19792,5.21354 -18.01042,5.21354 -3.82812,0 -7.40104,-0.58333 -3.57292,-0.58333 -7.18229,-1.78646 v -10.17187 q 3.42708,1.96875 6.70833,2.91666 3.28125,0.98438 6.59896,0.98438 6.41667,0 9.40625,-2.80729 2.98958,-2.8073 2.98958,-8.78646 z m -8.60416,-25.41146 q -4.04688,0 -6.30729,2.98958 -2.26042,2.98959 -2.26042,8.45834 0,5.61458 2.1875,8.53125 2.1875,2.8802 6.38021,2.8802 4.08333,0 6.34375,-2.98958 2.26041,-2.98958 2.26041,-8.42187 0,-5.46875 -2.26041,-8.45834 -2.26042,-2.98958 -6.34375,-2.98958 z"
       style="font-style:normal;font-variant:normal;font-weight:bold;font-stretch:normal;font-size:74.66666412px;font-family:sans-serif;-inkscape-font-specification:'sans-serif Bold'"
       id="path4757" />
    <path
       d="m 394.18033,698.30469 q -2.69791,3.57291 -5.94271,5.25 -3.24479,1.67708 -7.51041,1.67708 -7.47396,0 -12.35938,-5.86979 -4.88541,-5.90625 -4.88541,-15.02083 0,-9.15105 4.88541,-14.98438 4.88542,-5.86979 12.35938,-5.86979 4.26562,0 7.51041,1.67708 3.2448,1.67709 5.94271,5.28646 v -6.05208 h 13.125 v 36.71354 q 0,9.84375 -6.23437,15.02083 -6.19792,5.21354 -18.01042,5.21354 -3.82812,0 -7.40104,-0.58333 -3.57292,-0.58333 -7.18229,-1.78646 v -10.17187 q 3.42708,1.96875 6.70833,2.91666 3.28125,0.98438 6.59896,0.98438 6.41667,0 9.40625,-2.80729 2.98958,-2.8073 2.98958,-8.78646 z m -8.60416,-25.41146 q -4.04688,0 -6.3073,2.98958 -2.26041,2.98959 -2.26041,8.45834 0,5.61458 2.1875,8.53125 2.1875,2.8802 6.38021,2.8802 4.08333,0 6.34375,-2.98958 2.26041,-2.98958 2.26041,-8.42187 0,-5.46875 -2.26041,-8.45834 -2.26042,-2.98958 -6.34375,-2.98958 z"
       style="font-style:normal;font-variant:normal;font-weight:bold;font-stretch:normal;font-size:74.66666412px;font-family:sans-serif;-inkscape-font-specification:'sans-serif Bold'"
       id="path4759" />
    <path
       d="m 414.56054,664.39844 h 13.05208 l 10.97396,27.70833 9.33333,-27.70833 h 13.05208 l -17.17187,44.69791 q -2.58854,6.81771 -6.05208,9.51563 -3.42709,2.73437 -9.07813,2.73437 h -7.54687 v -8.56771 h 4.08333 q 3.31771,0 4.8125,-1.05729 1.53125,-1.05729 2.36979,-3.79166 l 0.36458,-1.13021 z"
       style="font-style:normal;font-variant:normal;font-weight:bold;font-stretch:normal;font-size:74.66666412px;font-family:sans-serif;-inkscape-font-specification:'sans-serif Bold'"
       id="path4761" />
    <path
       d="m 490.35742,696.80989 q 4.19271,0 6.38021,-3.06249 2.22396,-3.0625 2.22396,-8.89584 0,-5.83333 -2.22396,-8.89583 -2.1875,-3.0625 -6.38021,-3.0625 -4.19271,0 -6.45312,3.09896 -2.22396,3.0625 -2.22396,8.85937 0,5.79688 2.22396,8.89584 2.26041,3.06249 6.45312,3.06249 z m -8.67708,-26.43229 q 2.69791,-3.57291 5.97916,-5.25 3.28125,-1.71354 7.54688,-1.71354 7.54687,0 12.39583,6.01563 4.84896,5.97916 4.84896,15.42187 0,9.44271 -4.84896,15.45833 -4.84896,5.97917 -12.39583,5.97917 -4.26563,0 -7.54688,-1.67708 -3.28125,-1.71354 -5.97916,-5.28646 v 5.90625 H 468.62825 V 648.5026 h 13.05209 z"
       style="font-style:normal;font-variant:normal;font-weight:bold;font-stretch:normal;font-size:74.66666412px;font-family:sans-serif;-inkscape-font-specification:'sans-serif Bold'"
       id="path4763" />
    <path
       d="m 540.45115,686.85677 q -4.08333,0 -6.16146,1.38542 -2.04166,1.38541 -2.04166,4.08333 0,2.47917 1.64062,3.90104 1.67708,1.38542 4.63021,1.38542 3.68229,0 6.19792,-2.625 2.51562,-2.66146 2.51562,-6.63542 v -1.49479 z m 19.94271,-4.92187 v 23.29687 H 547.2324 v -6.05208 q -2.625,3.71875 -5.90625,5.43229 -3.28125,1.67708 -7.98437,1.67708 -6.34375,0 -10.31771,-3.68229 -3.9375,-3.71875 -3.9375,-9.625 0,-7.18229 4.92187,-10.53646 4.95834,-3.35416 15.53125,-3.35416 h 7.69271 v -1.02084 q 0,-3.09896 -2.44271,-4.52083 -2.44271,-1.45833 -7.61979,-1.45833 -4.19271,0 -7.80208,0.83854 -3.60938,0.83854 -6.70834,2.51562 v -9.95312 q 4.19271,-1.02084 8.42188,-1.53125 4.22917,-0.54688 8.45833,-0.54688 11.04688,0 15.93229,4.375 4.92188,4.33854 4.92188,14.14584 z"
       style="font-style:normal;font-variant:normal;font-weight:bold;font-stretch:normal;font-size:74.66666412px;font-family:sans-serif;-inkscape-font-specification:'sans-serif Bold'"
       id="path4765" />
    <path
       d="m 605.6022,665.67448 v 10.64583 q -2.66146,-1.82291 -5.35937,-2.69791 -2.66146,-0.875 -5.54167,-0.875 -5.46875,0 -8.53125,3.20833 -3.02604,3.17187 -3.02604,8.89583 0,5.72396 3.02604,8.93229 3.0625,3.17188 8.53125,3.17188 3.0625,0 5.79688,-0.91146 2.77083,-0.91146 5.10416,-2.69792 v 10.68229 q -3.0625,1.13021 -6.23437,1.67709 -3.13542,0.58333 -6.30729,0.58333 -11.04688,0 -17.28125,-5.65104 -6.23438,-5.6875 -6.23438,-15.78646 0,-10.09896 6.23438,-15.75 6.23437,-5.6875 17.28125,-5.6875 3.20833,0 6.30729,0.58334 3.13541,0.54687 6.23437,1.67708 z"
       style="font-style:normal;font-variant:normal;font-weight:bold;font-stretch:normal;font-size:74.66666412px;font-family:sans-serif;-inkscape-font-specification:'sans-serif Bold'"
       id="path4767" />
    <path
       d="m 616.94075,648.5026 h 13.05209 v 30.88021 l 15.02083,-14.98437 h 15.16667 l -19.94271,18.73958 21.51042,22.09375 h -15.82292 l -15.93229,-17.02604 v 17.02604 h -13.05209 z"
       style="font-style:normal;font-variant:normal;font-weight:bold;font-stretch:normal;font-size:74.66666412px;font-family:sans-serif;-inkscape-font-specification:'sans-serif Bold'"
       id="path4769" />
  </g>
</svg>
